<?xml version="1.0" encoding="UTF-8"?>
<!-- Do not edit this file with editors other than draw.io -->
<!DOCTYPE svg PUBLIC "-//W3C//DTD SVG 1.1//EN" "http://www.w3.org/Graphics/SVG/1.1/DTD/svg11.dtd">
<svg xmlns="http://www.w3.org/2000/svg" style="background: transparent; background-color: transparent; color-scheme: dark;" xmlns:xlink="http://www.w3.org/1999/xlink" version="1.1" width="140px" height="100px" viewBox="0 0 140 100" content="&lt;mxfile host=&quot;app.diagrams.net&quot; agent=&quot;Mozilla/5.0 (Macintosh; Intel Mac OS X 10_15_7) AppleWebKit/537.36 (KHTML, like Gecko) Chrome/145.0.0.0 Safari/537.36&quot; version=&quot;29.6.1&quot; scale=&quot;1&quot; border=&quot;0&quot;&gt;&#10;  &lt;diagram name=&quot;Página-1&quot; id=&quot;dcozlFG4bR4yBv9RGbfH&quot;&gt;&#10;    &lt;mxGraphModel dx=&quot;542&quot; dy=&quot;351&quot; grid=&quot;1&quot; gridSize=&quot;10&quot; guides=&quot;1&quot; tooltips=&quot;1&quot; connect=&quot;1&quot; arrows=&quot;1&quot; fold=&quot;1&quot; page=&quot;1&quot; pageScale=&quot;1&quot; pageWidth=&quot;827&quot; pageHeight=&quot;1169&quot; math=&quot;0&quot; shadow=&quot;0&quot;&gt;&#10;      &lt;root&gt;&#10;        &lt;mxCell id=&quot;0&quot; /&gt;&#10;        &lt;mxCell id=&quot;1&quot; parent=&quot;0&quot; /&gt;&#10;        &lt;mxCell id=&quot;o_yO3Z4Zg13xNXWiPpkp-19&quot; parent=&quot;1&quot; style=&quot;sketch=0;pointerEvents=1;shadow=0;dashed=1;html=1;strokeColor=none;fillColor=light-dark(#008A00,#FFFFFF);labelPosition=center;verticalLabelPosition=bottom;verticalAlign=top;outlineConnect=0;align=center;shape=mxgraph.office.users.meeting;fontColor=#ffffff;gradientColor=none;&quot; value=&quot;&quot; vertex=&quot;1&quot;&gt;&#10;          &lt;mxGeometry height=&quot;100&quot; width=&quot;140&quot; x=&quot;580&quot; y=&quot;570&quot; as=&quot;geometry&quot; /&gt;&#10;        &lt;/mxCell&gt;&#10;      &lt;/root&gt;&#10;    &lt;/mxGraphModel&gt;&#10;  &lt;/diagram&gt;&#10;&lt;/mxfile&gt;&#10;"><defs/><g><g data-cell-id="0"><g data-cell-id="1"><g data-cell-id="o_yO3Z4Zg13xNXWiPpkp-19"><g transform="translate(0.5,0.5)"><rect x="0" y="-1" width="140" height="100" fill="none" stroke="none" pointer-events="all"/><path d="M 117.09 99 L 21.16 99 L 21.16 91.19 L 46.01 52.13 L 93.99 52.13 L 117.09 91.21 Z M 116.9 51.73 C 112.94 51.73 105.93 48.27 105.93 37.1 C 105.93 31.89 109.96 24.39 117.14 24.39 C 123.77 24.39 128.3 31.32 128.3 37.93 C 128.3 45.74 123.08 51.73 116.9 51.73 Z M 116.52 79.47 L 101.85 54.76 C 103.23 53.92 105.01 52.59 106.05 52.54 C 111.62 58.64 121.07 59.91 127.96 52.72 C 129.01 52.67 132.09 54.83 133.86 55.93 C 136.61 57.67 137.54 60.46 138.18 63.4 C 139.15 68.35 139.67 74.16 140 79.47 Z M 70.72 26.34 C 64.28 26.34 59.35 20.12 59.35 12.59 C 59.35 5.67 63.92 -1 70.58 -1 C 76.88 -1 81.74 5.59 81.74 12.44 C 81.74 22.44 74.8 26.34 70.72 26.34 Z M 48.29 46.27 C 48.69 42.98 49 39.47 49.71 36.63 C 50.37 34.08 51.13 31.99 54 30.17 C 56.82 28.45 58.5 27.2 59.47 27.15 C 65.51 33.71 74.99 34 81.48 27.33 C 82.69 27.36 85.58 29.55 86.98 30.33 C 89.37 31.79 90.58 33.77 91.38 36.94 C 92.21 40.02 92.52 43.27 92.88 46.27 Z M 22.74 51.73 C 16.51 51.73 11.73 45.09 11.73 38.35 C 11.73 29.65 17.27 24.42 22.98 24.42 C 28.72 24.42 34.12 29.96 34.12 38.4 C 34.12 45.17 29.62 51.73 22.74 51.73 Z M 0 79.47 C 0.38 74.05 0.88 68.61 1.59 64.57 C 2.46 59.18 3.77 57.2 6.54 55.48 C 8.17 54.49 10.78 52.57 11.85 52.54 C 17.94 59.13 27.39 59.36 33.86 52.72 C 34.83 52.75 36.56 54 37.81 54.76 L 22.15 79.47 Z" fill="#008a00" stroke="none" pointer-events="all" style="fill: rgb(255, 255, 255);"/></g></g></g></g></g></svg>