<?xml version="1.0" encoding="UTF-8"?>
<!-- Do not edit this file with editors other than draw.io -->
<!DOCTYPE svg PUBLIC "-//W3C//DTD SVG 1.1//EN" "http://www.w3.org/Graphics/SVG/1.1/DTD/svg11.dtd">
<svg xmlns="http://www.w3.org/2000/svg" style="background: transparent; background-color: transparent; color-scheme: dark;" xmlns:xlink="http://www.w3.org/1999/xlink" version="1.1" width="160px" height="150px" viewBox="0 0 160 150" content="&lt;mxfile host=&quot;app.diagrams.net&quot; agent=&quot;Mozilla/5.0 (Macintosh; Intel Mac OS X 10_15_7) AppleWebKit/537.36 (KHTML, like Gecko) Chrome/145.0.0.0 Safari/537.36&quot; version=&quot;29.6.1&quot; scale=&quot;1&quot; border=&quot;0&quot;&gt;&#10;  &lt;diagram name=&quot;Página-1&quot; id=&quot;dcozlFG4bR4yBv9RGbfH&quot;&gt;&#10;    &lt;mxGraphModel dx=&quot;542&quot; dy=&quot;351&quot; grid=&quot;1&quot; gridSize=&quot;10&quot; guides=&quot;1&quot; tooltips=&quot;1&quot; connect=&quot;1&quot; arrows=&quot;1&quot; fold=&quot;1&quot; page=&quot;1&quot; pageScale=&quot;1&quot; pageWidth=&quot;827&quot; pageHeight=&quot;1169&quot; math=&quot;0&quot; shadow=&quot;0&quot;&gt;&#10;      &lt;root&gt;&#10;        &lt;mxCell id=&quot;0&quot; /&gt;&#10;        &lt;mxCell id=&quot;1&quot; parent=&quot;0&quot; /&gt;&#10;        &lt;mxCell id=&quot;o_yO3Z4Zg13xNXWiPpkp-12&quot; parent=&quot;1&quot; style=&quot;rounded=1;whiteSpace=wrap;html=1;strokeColor=none;fillColor=light-dark(#60A917,#378ADD);fontColor=#ffffff;gradientColor=light-dark(#000000,#2E7FBE);&quot; value=&quot;&quot; vertex=&quot;1&quot;&gt;&#10;          &lt;mxGeometry height=&quot;150&quot; width=&quot;160&quot; x=&quot;290&quot; y=&quot;410&quot; as=&quot;geometry&quot; /&gt;&#10;        &lt;/mxCell&gt;&#10;        &lt;mxCell id=&quot;o_yO3Z4Zg13xNXWiPpkp-13&quot; parent=&quot;1&quot; style=&quot;sketch=0;pointerEvents=1;shadow=0;dashed=1;html=1;strokeColor=none;fillColor=light-dark(#008A00,#FFFFFF);labelPosition=center;verticalLabelPosition=bottom;verticalAlign=top;outlineConnect=0;align=center;shape=mxgraph.office.users.meeting;fontColor=#ffffff;gradientColor=none;&quot; value=&quot;&quot; vertex=&quot;1&quot;&gt;&#10;          &lt;mxGeometry height=&quot;100&quot; width=&quot;140&quot; x=&quot;300&quot; y=&quot;430&quot; as=&quot;geometry&quot; /&gt;&#10;        &lt;/mxCell&gt;&#10;      &lt;/root&gt;&#10;    &lt;/mxGraphModel&gt;&#10;  &lt;/diagram&gt;&#10;&lt;/mxfile&gt;&#10;"><defs><linearGradient x1="0%" y1="0%" x2="0%" y2="100%" id="drawio-svg-E1vX4WdKy1heGuuexFQn-gradient-_378add-1-_2e7fbe-1-s-0"><stop offset="0%" stop-color="#60A917" stop-opacity="1" style="stop-color: rgb(55, 138, 221); stop-opacity: 1;"/><stop offset="100%" stop-color="#000000" stop-opacity="1" style="stop-color: rgb(46, 127, 190); stop-opacity: 1;"/></linearGradient></defs><g><g data-cell-id="0"><g data-cell-id="1"><g data-cell-id="o_yO3Z4Zg13xNXWiPpkp-12"><g transform="translate(0.5,0.5)"><rect x="0" y="0" width="160" height="150" rx="22.5" ry="22.5" fill="url(#drawio-svg-E1vX4WdKy1heGuuexFQn-gradient-_378add-1-_2e7fbe-1-s-0)" stroke="none" pointer-events="all" style="fill: url(&quot;#drawio-svg-E1vX4WdKy1heGuuexFQn-gradient-_378add-1-_2e7fbe-1-s-0&quot;);"/></g></g><g data-cell-id="o_yO3Z4Zg13xNXWiPpkp-13"><g transform="translate(0.5,0.5)"><rect x="10" y="20" width="140" height="100" fill="none" stroke="none" pointer-events="all"/><path d="M 127.09 120 L 31.16 120 L 31.16 112.19 L 56.01 73.13 L 103.99 73.13 L 127.09 112.21 Z M 126.9 72.73 C 122.94 72.73 115.93 69.27 115.93 58.1 C 115.93 52.89 119.96 45.39 127.14 45.39 C 133.77 45.39 138.3 52.32 138.3 58.93 C 138.3 66.74 133.08 72.73 126.9 72.73 Z M 126.52 100.47 L 111.85 75.76 C 113.23 74.92 115.01 73.59 116.05 73.54 C 121.62 79.64 131.07 80.91 137.96 73.72 C 139.01 73.67 142.09 75.83 143.86 76.93 C 146.61 78.67 147.54 81.46 148.18 84.4 C 149.15 89.35 149.67 95.16 150 100.47 Z M 80.72 47.34 C 74.28 47.34 69.35 41.12 69.35 33.59 C 69.35 26.67 73.92 20 80.58 20 C 86.88 20 91.74 26.59 91.74 33.44 C 91.74 43.44 84.8 47.34 80.72 47.34 Z M 58.29 67.27 C 58.69 63.98 59 60.47 59.71 57.63 C 60.37 55.08 61.13 52.99 64 51.17 C 66.82 49.45 68.5 48.2 69.47 48.15 C 75.51 54.71 84.99 55 91.48 48.33 C 92.69 48.36 95.58 50.55 96.98 51.33 C 99.37 52.79 100.58 54.77 101.38 57.94 C 102.21 61.02 102.52 64.27 102.88 67.27 Z M 32.74 72.73 C 26.51 72.73 21.73 66.09 21.73 59.35 C 21.73 50.65 27.27 45.42 32.98 45.42 C 38.72 45.42 44.12 50.96 44.12 59.4 C 44.12 66.17 39.62 72.73 32.74 72.73 Z M 10 100.47 C 10.38 95.05 10.88 89.61 11.59 85.57 C 12.46 80.18 13.77 78.2 16.54 76.48 C 18.17 75.49 20.78 73.57 21.85 73.54 C 27.94 80.13 37.39 80.36 43.86 73.72 C 44.83 73.75 46.56 75 47.81 75.76 L 32.15 100.47 Z" fill="#008a00" stroke="none" pointer-events="all" style="fill: rgb(255, 255, 255);"/></g></g></g></g></g></svg>